# xmcd CD database file
# Copyright (C) 1996 Ti Kan
#
# Track frame offsets:
#	150
#	10422
#	24137
#	45360
#	67537
#	91569
#	107589
#	121625
#	145381
#	160659
#	177202
#	200516
#	216341
#	236422
# Disc length: 3534 seconds
#
# Revision: 1
# Processed by: cddbd v1.5.1PL2 Copyright (c) Steve Scherf et al.
# Submitted via: CDCOPY 4.743
#
DISCID=a00dcc0e
DTITLE=Dwayne R. Mason - Glory! Glory!
DYEAR=1900
DGENRE=
TTITLE0=Down by the Riverside
TTITLE1=How I Got Over
TTITLE2=Angels Keep Watching Over Me
TTITLE3=Glory, Glory Hallelujah
TTITLE4=He's Sweet I Know
TTITLE5=Walk With Me Lord
TTITLE6=I'll Fly Away
TTITLE7=Something About That Name
TTITLE8=Leaning on the Everlasting Arms
TTITLE9=Just A Closer Walk With Thee
TTITLE10=He Looked Beyond My Faults
TTITLE11=Twelve Gates to the City
TTITLE12=When the Saints Go Marching In
TTITLE13=The Last Mile of the Way
EXTD=
EXTT0=
EXTT1=
EXTT2=
EXTT3=
EXTT4=
EXTT5=
EXTT6=
EXTT7=
EXTT8=
EXTT9=
EXTT10=
EXTT11=
EXTT12=
EXTT13=
PLAYORDER=
